<?xml version="1.0" encoding="UTF-8"?>
<svg id="Layer_2" data-name="Layer 2" xmlns="http://www.w3.org/2000/svg" xmlns:xlink="http://www.w3.org/1999/xlink" viewBox="0 0 438.45 80.02">
  <defs>
    <style>
      .cls-1, .cls-2 {
        fill: #fff;
      }

      .cls-2 {
        font-family: ArialMT, Arial;
        font-size: 30.41px;
      }

      .cls-3 {
        fill: none;
      }

      .cls-4 {
        fill: #1f3a93;
      }

      .cls-5 {
        clip-path: url(#clippath);
      }
    </style>
    <clipPath id="clippath">
      <rect class="cls-3" x="247.52" y="23.81" width="143.54" height="36.49"/>
    </clipPath>
  </defs>
  <g id="Layer_1-2" data-name="Layer 1">
    <rect class="cls-4" x="0" y="0" width="438.45" height="80.02" rx="40.01" ry="40.01"/>
    <g>
      <text class="cls-2" transform="translate(47.38 50.91)"><tspan x="0" y="0">Media Sync to </tspan></text>
      <g>
        <g class="cls-5">
          <path class="cls-1" d="M386.68,43.62c-2.96-.63-3.65-1.35-3.65-2.61v-.04c0-1.21,1.12-2.17,2.86-2.17,1.38,0,2.63.44,3.88,1.46l.88-1.17c-1.37-1.1-2.77-1.65-4.73-1.65-2.56,0-4.42,1.56-4.42,3.67v.04c0,2.21,1.42,3.21,4.52,3.88,2.83.6,3.5,1.31,3.5,2.56v.04c0,1.33-1.19,2.29-3,2.29s-3.21-.63-4.61-1.9l-.94,1.12c1.62,1.44,3.36,2.15,5.5,2.15,2.67,0,4.6-1.5,4.6-3.81v-.04c0-2.06-1.38-3.15-4.38-3.81h0ZM372.61,37.62h-1.52v13.46h7.99v-1.4h-6.47v-12.06h0ZM365.43,37.62h1.54v13.46h-1.52v-10.9l-4.9,7.21h-.08l-4.9-7.19v10.88h-1.48v-13.46h1.54l4.9,7.35,4.9-7.35h0Z"/>
          <path class="cls-1" d="M349.17,50.17c-3.52,1.24-4.62,1.56-6.32,1.56-2.59,0-4.41-1.53-4.41-4.97v-9.07s0,0,.01,0c2.3,0,4.07.72,4.07,3.96v4.6h0c0,2.14,1.21,2.85,2.52,2.85.5,0,2.31-.04,3.84-.21l.28,1.28h0ZM288.09,27.81c0-1.3,1.05-2.35,2.35-2.35s2.35,1.05,2.35,2.35-1.05,2.35-2.35,2.35-2.35-1.05-2.35-2.35h0ZM334.13,49.07l2.59,1.14v1.07h-9.45v-1.07l2.77-1.14v-10.66c0-2.1-1.6-2.74-3.66-2.74-.89,0-2.84.11-4.41.32v13.08l2.59,1.14v1.07h-9.45v-1.07l2.77-1.14v-22.06h-2.77v-1.46l6.86-1.74v10.8c3.41-.89,6.4-1.6,7.35-1.6,2.7,0,4.8.82,4.8,4.62v11.44h0ZM305.02,43.95c-2.74,0-4.01-1.35-4.01-4.65s1.28-4.58,4.01-4.58,4.01,1.31,4.01,4.58-1.28,4.65-4.01,4.65h0ZM300.22,51.59l8.42.46c1.21.04,2.03,1.03,2.03,2.31,0,2.59-2.42,4.19-5.93,4.19s-5.79-1.63-5.79-4.44c0-.67.18-1.71.46-2.63.25.04.53.11.82.11h0ZM313.26,30.02l-3.84,3.59c-1.17-.43-2.63-.64-4.3-.64-5.19,0-8.35,2.1-8.35,6.4,0,2.1.75,3.7,2.2,4.76-1.39,1.31-2.27,2.81-2.27,4.02,0,.96.43,1.85,1.14,2.49-1.63,1.14-2.74,3.06-2.74,4.62,0,2.91,3.23,5.04,9.31,5.04s10.16-2.56,10.16-6.71c0-2.74-1.95-4.62-4.94-4.8l-8.46-.46c-1.42-.11-1.88-1.35-.96-3.48,1.28.57,2.88.85,4.8.85,5.33,0,8.24-2.17,8.24-6.4,0-1.95-.64-3.48-1.88-4.55l3.7-1.63-1.81-3.09h0ZM292.41,49.07l2.59,1.14v1.07h-9.45v-1.07l2.77-1.14v-12.83h-2.77v-1.46l6.86-1.78v16.06h0ZM282.33,33.04c.53,0,1.17.11,1.53.25v6.4h-2.66l-.75-3.73c-1.92-.18-3.48,0-4.8.32v12.79l3.62,1.14v1.07h-10.48v-1.07l2.77-1.14v-12.83h-2.77v-1.46l6.86-1.78v1.74c2.24-.92,5.36-1.71,6.68-1.71h0ZM254.36,36.2c2.24-.53,3.98-.6,4.62-.6,2.77,0,4.12,2.17,4.12,6.86,0,5.22-1.63,6.89-5.44,6.89-1.1,0-1.88-.07-3.3-.36v-12.79h0ZM250.27,51.7l3.66-1.39c3.8,1.17,4.8,1.39,6,1.39,5.05,0,7.5-3.16,7.5-9.56s-2.24-9.13-6.82-9.13c-1.17,0-2.84.46-6.25,1.71v-10.91l-6.86,1.74v1.46h2.77v24.69h0Z"/>
        </g>
        <path class="cls-1" d="M341.92,37.05c1.17-1.87,3.09-2.76,5.81-2.72.13,0,.27,0,.42,0v-1.23c-3.87,0-6.13-1.7-6.13-5.83h-1.25c0,3.47-2.06,5.83-5.31,5.83v1.16c2.88.1,4.86,1.02,6.46,2.79h0Z"/>
        <path class="cls-1" d="M347.31,25.46c.07,0,.13,0,.18-.02.05-.01.08-.03.11-.05s.04-.05.05-.09c0-.03.01-.07.01-.12s0-.08-.01-.11c0-.03-.02-.06-.05-.08-.02-.02-.05-.04-.09-.05-.04-.01-.09-.02-.16-.02h-.22v.53h.18ZM347.35,24.59c.26,0,.45.05.57.14.12.09.18.23.18.4,0,.12-.03.23-.1.32-.06.09-.16.16-.3.2.03.02.06.04.08.07.02.03.04.06.06.09l.38.64h-.43c-.06,0-.11-.02-.13-.07l-.3-.55s-.03-.03-.05-.04c-.02-.01-.04-.02-.08-.02h-.11v.68h-.45v-1.86h.67Z"/>
        <path class="cls-1" d="M347.38,24.18c-.75,0-1.36.61-1.36,1.36s.61,1.36,1.36,1.36,1.36-.61,1.36-1.36-.61-1.36-1.36-1.36h0ZM347.38,27.13c-.88,0-1.59-.71-1.59-1.59s.71-1.59,1.59-1.59,1.59.71,1.59,1.59-.71,1.59-1.59,1.59h0Z"/>
      </g>
    </g>
  </g>
</svg>
