<svg xmlns="http://www.w3.org/2000/svg" viewBox="0 0 400 300" fill="none">
  <rect width="400" height="300" fill="#18202d"/>

  <g opacity="0.95">
    <circle cx="48" cy="66" r="5" fill="#d8e0ef"/>
    <circle cx="328" cy="60" r="4" fill="#d8e0ef"/>
    <circle cx="346" cy="172" r="6" fill="#d8e0ef"/>
    <circle cx="72" cy="206" r="4" fill="#d8e0ef"/>
    <circle cx="282" cy="224" r="4" fill="#d8e0ef"/>
    <circle cx="110" cy="248" r="3" fill="#d8e0ef"/>
  </g>

  <g opacity="0.65">
    <path d="M34 136 L39 145 L34 154 L29 145 Z" fill="#d8e0ef"/>
    <path d="M78 184 L84 194 L78 204 L72 194 Z" fill="#d8e0ef"/>
    <path d="M132 230 L136 237 L132 244 L128 237 Z" fill="#d8e0ef"/>
    <path d="M316 218 L321 226 L316 234 L311 226 Z" fill="#d8e0ef"/>
    <path d="M352 116 L356 123 L352 130 L348 123 Z" fill="#d8e0ef"/>
  </g>

  <g transform="translate(200 52)">
    <circle cx="0" cy="-16" r="3" fill="#d8e0ef" opacity="0.35"/>
    <circle cx="11.3" cy="-11.3" r="3" fill="#d8e0ef" opacity="0.45"/>
    <circle cx="16" cy="0" r="3" fill="#d8e0ef" opacity="0.55"/>
    <circle cx="11.3" cy="11.3" r="3" fill="#d8e0ef" opacity="0.65"/>
    <circle cx="0" cy="16" r="3" fill="#d8e0ef" opacity="0.75"/>
    <circle cx="-11.3" cy="11.3" r="3" fill="#d8e0ef" opacity="0.85"/>
    <circle cx="-16" cy="0" r="3" fill="#d8e0ef" opacity="0.95"/>
    <circle cx="-11.3" cy="-11.3" r="3" fill="#d8e0ef"/>
  </g>

  <rect x="112" y="84" width="176" height="132" rx="14" stroke="#d8e0ef" stroke-width="3" stroke-dasharray="11 8"/>

  <g transform="translate(200 154)" fill="#d8e0ef">
    <circle cx="36" cy="-20" r="22"/>
    <path d="M-64 54 L-18 -16 L6 18 L24 -1 L66 54 Z"/>
  </g>
</svg>
