<svg xmlns="http://www.w3.org/2000/svg" viewBox="0 0 400 300" fill="none">
  <!-- Background -->
  <rect width="400" height="300" fill="#f8fafc"/>
  
  <!-- Decorative elements - stars and dots -->
  <circle cx="80" cy="80" r="3" fill="#cbd5e1"/>
  <circle cx="320" cy="60" r="2" fill="#cbd5e1"/>
  <circle cx="60" cy="200" r="2" fill="#cbd5e1"/>
  <circle cx="340" cy="180" r="3" fill="#cbd5e1"/>
  <circle cx="100" cy="240" r="2" fill="#cbd5e1"/>
  <circle cx="300" cy="230" r="2" fill="#cbd5e1"/>
  
  <!-- 4-point stars -->
  <path d="M70 140 L73 145 L70 150 L67 145 Z" fill="#94a3b8"/>
  <path d="M330 120 L333 125 L330 130 L327 125 Z" fill="#94a3b8"/>
  <path d="M90 180 L92 183 L90 186 L88 183 Z" fill="#cbd5e1"/>
  <path d="M310 200 L312 203 L310 206 L308 203 Z" fill="#cbd5e1"/>
  <path d="M350 90 L352 93 L350 96 L348 93 Z" fill="#cbd5e1"/>
  <path d="M50 120 L52 123 L50 126 L48 123 Z" fill="#cbd5e1"/>
  
  <!-- Spinner/loading indicator at top -->
  <g transform="translate(200, 55)">
    <circle cx="0" cy="-12" r="2" fill="#94a3b8" opacity="0.3"/>
    <circle cx="8.5" cy="-8.5" r="2" fill="#94a3b8" opacity="0.4"/>
    <circle cx="12" cy="0" r="2" fill="#94a3b8" opacity="0.5"/>
    <circle cx="8.5" cy="8.5" r="2" fill="#94a3b8" opacity="0.6"/>
    <circle cx="0" cy="12" r="2" fill="#94a3b8" opacity="0.7"/>
    <circle cx="-8.5" cy="8.5" r="2" fill="#94a3b8" opacity="0.8"/>
    <circle cx="-12" cy="0" r="2" fill="#94a3b8" opacity="0.9"/>
    <circle cx="-8.5" cy="-8.5" r="2" fill="#94a3b8" opacity="1"/>
  </g>
  
  <!-- Dashed border rectangle -->
  <rect x="120" y="90" width="160" height="120" rx="8" ry="8" fill="none" stroke="#cbd5e1" stroke-width="2" stroke-dasharray="8 4"/>
  
  <!-- Mountain landscape icon -->
  <g transform="translate(200, 150)">
    <!-- Sun/circle -->
    <circle cx="35" cy="-15" r="18" fill="#cbd5e1"/>
    
    <!-- Mountains -->
    <path d="M-60 50 L-20 -10 L5 20 L20 5 L60 50 Z" fill="#cbd5e1"/>
  </g>
</svg>
