<?xml version="1.0" encoding="UTF-8"?>
<svg id="Layer_1" xmlns="http://www.w3.org/2000/svg" version="1.1" xmlns:serif="http://www.serif.com/" xmlns:xlink="http://www.w3.org/1999/xlink" viewBox="0 0 1366 768">
  <!-- Generator: Adobe Illustrator 30.1.0, SVG Export Plug-In . SVG Version: 2.1.1 Build 136)  -->
  <defs>
    <style>
      .st0 {
        fill: #001447;
      }

      .st1 {
        fill: #00141d;
      }

      .st2 {
        fill: url(#linear-gradient1);
      }

      .st2, .st3, .st4, .st5 {
        fill-rule: evenodd;
      }

      .st3 {
        fill: url(#linear-gradient3);
      }

      .st4 {
        fill: url(#linear-gradient);
      }

      .st5 {
        fill: url(#linear-gradient2);
      }
    </style>
    <linearGradient id="linear-gradient" x1="0" y1="0" x2="1" y2="0" gradientTransform="translate(357.4 384.9) scale(134.9 56.4)" gradientUnits="userSpaceOnUse">
      <stop offset="0" stop-color="#0082ff"/>
      <stop offset="1" stop-color="#171c67"/>
    </linearGradient>
    <linearGradient id="linear-gradient1" x1="0" y1="0" x2="1" y2="0" gradientTransform="translate(154.2 408.7) scale(181.2 299.1)" gradientUnits="userSpaceOnUse">
      <stop offset="0" stop-color="#a30316"/>
      <stop offset="1" stop-color="#ff334a"/>
    </linearGradient>
    <linearGradient id="linear-gradient2" x1="0" y1="0" x2="1" y2="0" gradientTransform="translate(335.4 272.3) scale(156.8 95.1)" xlink:href="#linear-gradient"/>
    <linearGradient id="linear-gradient3" x1="0" y1="-.1" x2="1" y2="-.1" gradientTransform="translate(335.4 484.8) scale(156.8 -95.1)" xlink:href="#linear-gradient"/>
  </defs>
  <g>
    <path class="st4" d="M498.4,369.1v33.3l-143.1,13.3s-19.8-24-19.3-24.3c9.6-6.7,18.3-36,18.3-36l144.2,13.7h0Z"/>
    <path class="st2" d="M136.8,465.9l26.6,17.8v-175.4l76.4-23.7s14.9-4.2,23.7,12.2c8.8,16.4,8.8,84-86.7,79.5l83.6,151.2s3.5,6.9,21,9.6,49.3,8.6,49.3,8.6l-77.1-136.5s76.8-25.6,70.7-98.5c-6.1-73-22.9-83.6-54.6-85,0,0-21,2.1-30.9,7.4-10,5.3-101.9,51.1-101.9,51.1v181.7h0Z"/>
    <path class="st5" d="M329.6,221.4l168.7,66.1v36.2l-152.5-36.2s-1.3-35.7-16.3-66.1h0Z"/>
    <path class="st3" d="M361.3,545.5l137.1-61.9v-39.8l-167.7,39.8s30.1,61.8,30.6,61.9h0Z"/>
    <g>
      <path class="st0" d="M559.7,341.6v-29.8h114c9.5,0,17.3,5,17.3,11.3v7.4c0,6.2-7.8,11.3-17.3,11.3h-114ZM559.7,366.6h114c30.6,0,55.8-16.3,55.8-36.1v-7.4c0-19.9-25.1-36.1-55.8-36.1h-152.4v115.8h38.4v-36.1h0Z"/>
      <path class="st0" d="M760.6,286.8v115.8h38.4v-36.1h88l35.9,35.9h45.9l-37.9-37.8c21.9-4.8,37.9-18.5,37.9-34.3v-7.4c0-19.9-25.1-36.1-55.8-36.1h-152.4ZM913.2,341.6h-114v-29.8h114c9.5,0,17.3,5,17.3,11.3v7.4c0,6.2-7.8,11.3-17.3,11.3h0Z"/>
      <path class="st0" d="M1172.5,286.8h-117.8c-30.1,0-54.7,16-54.7,35.4v44.9c0,19.5,24.6,35.4,54.7,35.4h117.8c30.1,0,54.7-16,54.7-35.4v-44.9c0-19.5-24.6-35.4-54.7-35.4h0ZM1038.5,367.2v-44.9c0-5.8,7.3-10.6,16.2-10.6h117.8c8.9,0,16.2,4.7,16.2,10.6v44.9c0,5.8-7.3,10.6-16.2,10.6h-117.8c-8.9,0-16.2-4.7-16.2-10.6Z"/>
    </g>
  </g>
  <g>
    <path class="st1" d="M557.4,415.3h39.3c12.2,0,22.2,6.8,22.2,15.1v15.8c0,8.3-10.2,15.1-22.3,15.1h-44.2v18.2h-29.3v-24c0-8,0-16,0-24v-16.1h34.3ZM589.6,442.7v-8.7c0-1.4-1.7-2.6-3.8-2.6h-33.6v13.8h33.5c2.1,0,3.9-1.2,3.9-2.6h0Z"/>
    <path class="st1" d="M642.8,447.4v-32.1h29.3v24.1h37.3v-24.1h29.2v32.1c0,10.7,0,21.3,0,32.1h-29.3v-24.1h-37.3v24.1h-29.2c0-10.7,0-21.3,0-32.1Z"/>
    <path class="st1" d="M861.1,430.4v34c0,8.3-10.1,15.1-22.3,15.1h-54.1c-12.2,0-22.3-6.8-22.3-15.1v-34c0-8.3,10.1-15.1,22.3-15.1h54.1c12.2,0,22.3,6.8,22.3,15.1ZM795.3,463.3h32.7c2.1,0,3.8-1.2,3.8-2.6v-26.9c0-1.4-1.7-2.6-3.8-2.6h-32.7c-2.1,0-3.8,1.2-3.8,2.6v26.9c0,1.4,1.7,2.6,3.8,2.6Z"/>
    <path class="st1" d="M981.4,415.3v16.2h-33.3v24c0,8,0,16,0,24h-29.2c0-8,0-16,0-24v-24h-33.3v-16.2h95.8Z"/>
    <path class="st1" d="M1104,430.4v34c0,8.3-10.1,15.1-22.3,15.1h-54.1c-12.2,0-22.3-6.8-22.3-15.1v-34c0-8.3,10.1-15.1,22.3-15.1h54.1c12.2,0,22.3,6.8,22.3,15.1ZM1038.1,463.3h32.7c2.1,0,3.8-1.2,3.8-2.6v-26.9c0-1.4-1.7-2.6-3.8-2.6h-32.7c-2.1,0-3.8,1.2-3.8,2.6v26.9c0,1.4,1.7,2.6,3.8,2.6Z"/>
    <path class="st1" d="M1147.2,455.4c-12.2,0-22.2-6.8-22.1-15.1v-9.9c0-8.3,10.1-15.1,22.3-15.1h73.4v16.1h-62.8c-2.1,0-3.8,1.2-3.8,2.6v2.8c0,1.4,1.7,2.6,3.8,2.6h43.4c12.2,0,22.2,6.8,22.2,15.1v9.9c0,8.3-10.1,15.1-22.3,15.1h-73.5v-16.1h62.8c2.1,0,3.8-1.2,3.8-2.6v-2.8c0-1.4-1.7-2.6-3.8-2.6h-43.4Z"/>
  </g>
</svg>